<svg width="30" height="29" viewBox="0 0 30 29" fill="none" xmlns="http://www.w3.org/2000/svg">
<foreignObject x="-18.6961" y="-18.6961" width="66.5754" height="65.6342"><div xmlns="http://www.w3.org/1999/xhtml" style="backdrop-filter:blur(9.35px);clip-path:url(#bgblur_0_504_202_clip_path);height:100%;width:100%"></div></foreignObject><g data-figma-bg-blur-radius="18.6961">
<rect width="29.1833" height="28.2419" rx="14.1209" fill="white" fill-opacity="0.05"/>
<rect x="0.1" y="0.1" width="28.9833" height="28.0419" rx="14.0209" stroke="#B5B5B5" stroke-opacity="0.3" stroke-width="0.2"/>
<circle cx="14.7211" cy="14.0437" r="11.8969" fill="url(#paint0_linear_504_202)"/>
<path d="M19.1459 9.63568H10.8537C10.0101 9.63568 9.32617 10.3196 9.32617 11.1632V16.8368C9.32617 17.6804 10.0101 18.3643 10.8537 18.3643H19.1459C19.9895 18.3643 20.6734 17.6804 20.6734 16.8368V11.1632C20.6734 10.3196 19.9895 9.63568 19.1459 9.63568Z" stroke="white" stroke-width="0.872864" stroke-linecap="round" stroke-linejoin="round"/>
<path d="M9.32617 12.2543H20.6734M11.5083 15.2002H12.8176V15.7457H11.5083V15.2002Z" stroke="white" stroke-width="1.63662" stroke-linejoin="round"/>
</g>
<defs>
<clipPath id="bgblur_0_504_202_clip_path" transform="translate(18.6961 18.6961)"><rect width="29.1833" height="28.2419" rx="14.1209"/>
</clipPath><linearGradient id="paint0_linear_504_202" x1="14.7211" y1="2.14684" x2="14.7211" y2="25.9407" gradientUnits="userSpaceOnUse">
<stop stop-color="#6BBAFF"/>
<stop offset="1" stop-color="#2391F2"/>
</linearGradient>
</defs>
</svg>
