<svg width="69" height="69" viewBox="0 0 69 69" fill="none" xmlns="http://www.w3.org/2000/svg">
<rect width="69" height="69" rx="34.5" fill="url(#paint0_linear_504_415)"/>
<path d="M45.4439 39.4345L41.5991 38.9956C41.1471 38.9425 40.6888 38.9925 40.2589 39.1419C39.8289 39.2914 39.4384 39.5363 39.1167 39.8583L36.3315 42.6435C32.0348 40.4577 28.5423 36.9651 26.3564 32.6684L29.1567 29.8681C29.8076 29.2172 30.1255 28.309 30.0195 27.3856L29.5805 23.5712C29.495 22.8326 29.1408 22.1514 28.5852 21.6573C28.0297 21.1632 27.3118 20.8908 26.5683 20.892H23.9497C22.2392 20.892 20.8164 22.3148 20.9223 24.0253C21.7246 36.9521 32.063 47.2754 44.9746 48.0776C46.6851 48.1836 48.108 46.7607 48.108 45.0503V42.4316C48.1231 40.9028 46.9727 39.6162 45.4439 39.4345Z" fill="white"/>
<defs>
<linearGradient id="paint0_linear_504_415" x1="-77.4961" y1="41.5975" x2="72.0397" y2="41.6379" gradientUnits="userSpaceOnUse">
<stop stop-color="#60FFF4"/>
<stop offset="1" stop-color="#36DCD1"/>
</linearGradient>
</defs>
</svg>
