<svg width="69" height="69" viewBox="0 0 69 69" fill="none" xmlns="http://www.w3.org/2000/svg">
<rect width="69" height="69" rx="34.5" fill="url(#paint0_linear_504_427)"/>
<path d="M39.7979 34.5H34.5V26.9317M20.877 34.5C20.877 36.2891 21.2293 38.0606 21.9139 39.7134C22.5986 41.3662 23.602 42.868 24.8671 44.133C26.1321 45.3981 27.6339 46.4015 29.2867 47.0861C30.9395 47.7708 32.711 48.1231 34.5 48.1231C36.2891 48.1231 38.0606 47.7708 39.7134 47.0861C41.3662 46.4015 42.868 45.3981 44.133 44.133C45.3981 42.868 46.4015 41.3662 47.0861 39.7134C47.7708 38.0606 48.1231 36.2891 48.1231 34.5C48.1231 32.711 47.7708 30.9395 47.0861 29.2867C46.4015 27.6339 45.3981 26.1321 44.133 24.8671C42.868 23.602 41.3662 22.5986 39.7134 21.9139C38.0606 21.2293 36.2891 20.877 34.5 20.877C32.711 20.877 30.9395 21.2293 29.2867 21.9139C27.6339 22.5986 26.1321 23.602 24.8671 24.8671C23.602 26.1321 22.5986 27.6339 21.9139 29.2867C21.2293 30.9395 20.877 32.711 20.877 34.5Z" stroke="white" stroke-width="3.02735" stroke-linecap="round" stroke-linejoin="round"/>
<defs>
<linearGradient id="paint0_linear_504_427" x1="2.04164e-08" y1="25.3665" x2="73.1698" y2="25.5618" gradientUnits="userSpaceOnUse">
<stop stop-color="#6BBAFF"/>
<stop offset="1" stop-color="#2391F2"/>
</linearGradient>
</defs>
</svg>
