<svg width="69" height="69" viewBox="0 0 69 69" fill="none" xmlns="http://www.w3.org/2000/svg">
<rect width="69" height="69" rx="34.5" fill="url(#paint0_linear_504_421)"/>
<path d="M39.7977 34.5H34.4998V26.9317M20.8767 34.5C20.8767 36.2891 21.2291 38.0606 21.9137 39.7134C22.5983 41.3662 23.6018 42.868 24.8668 44.133C26.1318 45.3981 27.6336 46.4015 29.2865 47.0861C30.9393 47.7708 32.7108 48.1231 34.4998 48.1231C36.2888 48.1231 38.0603 47.7708 39.7131 47.0861C41.366 46.4015 42.8678 45.3981 44.1328 44.133C45.3978 42.868 46.4013 41.3662 47.0859 39.7134C47.7705 38.0606 48.1229 36.2891 48.1229 34.5C48.1229 32.711 47.7705 30.9395 47.0859 29.2867C46.4013 27.6339 45.3978 26.1321 44.1328 24.8671C42.8678 23.602 41.366 22.5986 39.7131 21.9139C38.0603 21.2293 36.2888 20.877 34.4998 20.877C32.7108 20.877 30.9393 21.2293 29.2865 21.9139C27.6336 22.5986 26.1318 23.602 24.8668 24.8671C23.6018 26.1321 22.5983 27.6339 21.9137 29.2867C21.2291 30.9395 20.8767 32.711 20.8767 34.5Z" stroke="white" stroke-width="3.02735" stroke-linecap="round" stroke-linejoin="round"/>
<defs>
<linearGradient id="paint0_linear_504_421" x1="-4.00983e-07" y1="34.5" x2="69.8555" y2="34.7202" gradientUnits="userSpaceOnUse">
<stop stop-color="#FFA245"/>
<stop offset="1" stop-color="#FF850A"/>
</linearGradient>
</defs>
</svg>
