<svg width="190" height="20" viewBox="0 0 190 20" fill="none" xmlns="http://www.w3.org/2000/svg">
<g clip-path="url(#clip0_3_5)">
<path d="M23.3755 2.16273C24.69 2.16273 25.9689 2.15042 27.2464 2.17915C27.3955 2.18188 27.5788 2.38158 27.6786 2.53341C29.77 5.75046 31.8517 8.97435 33.9376 12.1955C34.0334 12.3446 34.1387 12.4868 34.322 12.7495V2.20103H38.4089V19.0659C37.0931 19.0659 35.7828 19.0782 34.4738 19.0482C34.3329 19.0454 34.166 18.8129 34.0635 18.6542C31.9926 15.4645 29.9286 12.2694 27.8633 9.07557C27.7634 8.92101 27.6567 8.77192 27.4639 8.49015V19.0413H23.3769V2.16273H23.3755Z" fill="black"/>
<path d="M87.6972 7.5901C86.0039 7.5901 84.4843 7.5942 82.966 7.58052C82.8415 7.58052 82.6528 7.48341 82.6049 7.37946C81.4778 4.97214 77.0776 5.24296 75.7564 7.80895C74.803 9.66094 74.7784 11.5676 75.7823 13.3964C76.8301 15.3045 79.5561 16.0362 81.4765 15.0063C82.3642 14.5303 82.9031 13.7821 83.1821 12.7453H78.4578V9.66641H87.5563C88.5384 15.1745 84.2203 18.9578 80.1689 19.1781C76.1243 19.3983 72.6159 17.2577 71.4204 13.6877C69.6218 8.32187 72.4709 3.47304 77.2828 2.23108C80.9335 1.28867 84.7619 2.67014 86.6741 5.62321C87.0489 6.20042 87.317 6.84739 87.6986 7.58873L87.6972 7.5901Z" fill="black"/>
<path d="M144.362 7.5886C142.669 7.5886 141.119 7.59271 139.569 7.57903C139.465 7.57903 139.319 7.4655 139.267 7.36565C138.04 5.03356 134.436 5.49998 133.055 6.95805C131.275 8.83603 131.318 12.551 133.194 14.3318C134.399 15.4753 136.653 15.7913 138.129 15.0226C139.011 14.563 139.684 13.6575 139.802 12.7438H135.154V9.65944H144.21C144.943 13.9064 142.769 17.3683 138.855 18.7607C134.131 20.4418 128.935 17.5585 127.8 12.7247C126.681 7.95791 129.344 3.41136 133.946 2.23232C137.618 1.29264 141.458 2.67412 143.372 5.65454C143.743 6.23175 144.004 6.88008 144.362 7.58587V7.5886Z" fill="black"/>
<path d="M106.347 19.1178V2.26521C106.409 2.23922 106.454 2.20366 106.499 2.20366C108.889 2.22691 111.284 2.15989 113.666 2.2994C117.31 2.51415 120.401 5.06782 121.253 8.39019C122.571 13.5181 119.228 18.4339 113.943 18.9291C111.439 19.1629 108.905 19.0658 106.347 19.1178ZM110.468 15.9363C111.751 15.9226 113.012 16.0622 114.235 15.6313C115.331 15.2442 116.176 14.5425 116.677 13.5003C117.578 11.625 117.625 9.6896 116.699 7.83213C115.484 5.39609 113.207 5.11433 110.468 5.41661V15.9349V15.9363Z" fill="black"/>
<path d="M162.808 19.0673C163.443 17.2386 164.054 15.4714 164.668 13.7042C165.954 10.0043 167.244 6.30579 168.517 2.6018C168.628 2.28037 168.757 2.14633 169.119 2.15317C170.503 2.17779 171.888 2.16685 173.271 2.16001C173.532 2.15864 173.7 2.18873 173.803 2.48828C175.672 7.9321 177.556 13.3718 179.437 18.8129C179.458 18.8758 179.467 18.9415 179.497 19.0687C178.091 19.0687 176.715 19.0755 175.339 19.055C175.231 19.0536 175.073 18.8745 175.027 18.7459C174.768 18.0251 174.529 17.296 174.302 16.5643C174.224 16.3153 174.104 16.2182 173.833 16.2196C172.056 16.2319 170.279 16.2319 168.502 16.2196C168.21 16.2168 168.081 16.3194 167.998 16.593C167.78 17.3097 167.548 18.0237 167.286 18.7254C167.233 18.869 167.029 19.0523 166.891 19.055C165.559 19.0796 164.227 19.0701 162.806 19.0701L162.808 19.0673ZM171.205 7.25094C171.171 7.25367 171.137 7.25641 171.103 7.26051C170.46 9.19731 169.818 11.1355 169.169 13.0928H173.143C172.488 11.1177 171.847 9.185 171.205 7.25231V7.25094Z" fill="black"/>
<path d="M71.4641 19.0426H67.0981C66.8437 18.2725 66.5633 17.4929 66.3308 16.6982C66.22 16.318 66.0313 16.2099 65.6428 16.2154C63.97 16.2373 62.2958 16.2359 60.623 16.2154C60.2414 16.2113 60.0458 16.2974 59.9391 16.6941C59.7531 17.3835 59.5083 18.0564 59.2593 18.7266C59.2087 18.8648 59.0323 19.0508 58.9119 19.0522C57.5646 19.0754 56.2173 19.0672 54.8058 19.0672C54.8728 18.8456 54.9179 18.6692 54.9781 18.4969C56.8151 13.2062 58.6548 7.91834 60.4821 2.62497C60.5984 2.28849 60.7365 2.14488 61.1195 2.15171C62.5024 2.17907 63.8852 2.1695 65.2694 2.15719C65.5471 2.15445 65.6921 2.22558 65.7878 2.50597C67.6521 7.93065 69.5287 13.3512 71.3999 18.7732C71.4272 18.8511 71.4382 18.9332 71.4628 19.044L71.4641 19.0426ZM65.1217 13.09C64.4624 11.1094 63.8195 9.17944 63.1302 7.10723C62.4408 9.18765 61.8007 11.1149 61.1455 13.09H65.1217Z" fill="black"/>
<path d="M0.0328037 12.9148H3.31414C3.63831 13.6889 3.83527 14.4604 4.25108 15.0895C5.02936 16.2713 6.56129 16.7692 7.86206 16.4108C9.36527 15.995 10.4404 14.8187 10.4882 13.3114C10.5566 11.1311 10.5771 8.94404 10.4923 6.76515C10.4171 4.82288 8.77712 3.42499 6.86631 3.49612C5.00611 3.56587 3.5494 5.09781 3.52615 7.02776C3.51247 8.16987 3.52342 9.31335 3.52342 10.4568C3.52342 10.6223 3.52342 10.7892 3.52342 10.9848H0.120343C0.0888833 10.9465 0.0492172 10.9191 0.050585 10.8945C0.102561 8.85924 -0.247594 6.80208 0.38843 4.79963C1.89848 0.041068 7.99063 -1.58661 11.6892 1.78501C13.2348 3.19383 14.0158 4.95008 14.0199 7.04281C14.024 9.0562 14.024 11.0682 14.0199 13.0816C14.013 16.8362 10.9204 19.9493 7.14944 19.9999C3.31961 20.0519 0.149066 17.0592 0.0328037 13.2827C0.0300681 13.1828 0.0328037 13.0816 0.0328037 12.9148Z" fill="#FFD734"/>
<path d="M40.3718 2.21742H44.4451C44.4451 2.4349 44.4451 2.63323 44.4451 2.83293C44.4451 5.86943 44.4382 8.90594 44.4519 11.9438C44.4546 12.4513 44.4875 12.9724 44.6051 13.4634C44.8786 14.611 45.7294 15.3031 46.9057 15.3797C47.312 15.4057 47.7319 15.4153 48.1313 15.3455C49.4991 15.1075 50.3266 14.0912 50.3389 12.5621C50.3662 9.33816 50.3512 6.1129 50.3539 2.88901C50.3539 2.68658 50.3539 2.48277 50.3539 2.23657H54.4286C54.4423 2.37335 54.4669 2.50329 54.4669 2.6346C54.4683 5.84208 54.4628 9.04956 54.4696 12.257C54.4737 14.4865 53.705 16.37 51.9406 17.7706C49.365 19.8127 45.0674 19.7101 42.5548 17.5928C40.975 16.2606 40.354 14.503 40.3348 12.5128C40.302 9.18634 40.3225 5.85986 40.3225 2.53202C40.3225 2.4349 40.3512 2.33642 40.3704 2.21879L40.3718 2.21742Z" fill="black"/>
<path d="M98.8271 15.9392V19.0277H88.637V2.20243H98.8052V5.25124H92.7677V8.91009H98.0898V11.9972H92.78V15.9378H98.8257L98.8271 15.9392Z" fill="black"/>
<path d="M158.964 19.0439H154.838V5.3386H150.27V2.22276H163.528V5.32355H158.964V19.0453V19.0439Z" fill="black"/>
<path d="M179.94 19.0371V2.2242H184.007V15.9377H189.126V19.0371H179.94Z" fill="black"/>
<path d="M126.573 19.044H122.52V2.23242H126.573V19.044Z" fill="black"/>
<path d="M149.401 19.0426H145.344V2.23242H149.401V19.044V19.0426Z" fill="black"/>
<path d="M8.94801 7.0581C8.95212 8.12772 8.07673 9.01542 7.00301 9.02773C5.92382 9.04004 5.04159 8.17696 5.02791 7.09504C5.01287 5.97481 5.87047 5.10763 6.9907 5.10626C8.06852 5.10626 8.94254 5.97755 8.94801 7.0581Z" fill="#FFD734"/>
</g>
<defs>
<clipPath id="clip0_3_5">
<rect width="189.126" height="19.9999" fill="white"/>
</clipPath>
</defs>
</svg>
